/* XPM */
static char *_6a0f17b6d9a4705d508556c82ace2b4WlU3zcUuhEwN8USj[] = {
/* columns rows colors chars-per-pixel */
"32 32 6 1 ",
"  c None",
". c #FF5400",
"X c #FFB400",
"o c #8B07CA",
"O c #C224FF",
"+ c gray69",
/* pixels */
"                                ",
"                                ",
"                                ",
"                                ",
"                O               ",
"                O               ",
"                +               ",
"               +++              ",
"               +O+              ",
"               +O+              ",
"              ++O++             ",
"              +OOO+             ",
"         O    +OoO+    O        ",
"         O   ++OoO++   O        ",
"         +  ++OOOOO++  +        ",
"         + ++OOOOOOO++ +        ",
"         +++OOOOOOOOO+++        ",
"         ++OOO+OOO+OOO++        ",
"         ++++++OOO++++++        ",
"         + + ++OOO++ + +        ",
"         +   +O+O+O+   +        ",
"         .  ++++O++++  .        ",
"         X  ++ +O+ ++  X        ",
"            .. +++ ..           ",
"            XX +++ XX           ",
"               ...              ",
"               XXX              ",
"                                ",
"                                ",
"                                ",
"                                ",
"                                "
};
