/* XPM */
static char *_b9ffd813dc54a958fb2eb37374eed6dPEXOQZyLUa2kLlyL[] = {
/* columns rows colors chars-per-pixel */
"32 32 6 1 ",
"  c None",
". c #0C4475",
"X c #0A4E88",
"o c #0961AD",
"O c #0D78D5",
"+ c #1793FF",
/* pixels */
"                                ",
"             ++++++             ",
"           ++++++++++           ",
"          +++OOOOOO+++          ",
"         ++OOooooooOO++         ",
"        ++OooXXXXXXooO++        ",
"       ++OooXXXXXXXXooO++       ",
"       +OooXX......XXooO+       ",
"      ++OoXX........XXoO++      ",
"      +OoXX..........XXoO+      ",
"      +OoX............XoO+      ",
"     ++oXX............XXo++     ",
"     +OoX..............XoO+     ",
"     +OoX..............XoO+     ",
"     +OoX..............XoO+     ",
"     +OoX..............XoO+     ",
"     +OoX..............XoO+     ",
"     +OoX..............XoO+     ",
"     +OoXX............XXoO+     ",
"     +OOoX............XoOO+     ",
"     ++OoXX..........XXoO++     ",
"      +OOoXX........XXoOO+      ",
"      +OOooXX......XXooOO+      ",
"      ++OOooXXXXXXXXooOO++      ",
"       +OOOooXXXXXXooOOO+       ",
"       ++OOOOooooooOOOO++       ",
"        ++OOOOOOOOOOOO++        ",
"         ++OOOOOOOOOO++         ",
"          +++OOOOOO+++          ",
"           ++++++++++           ",
"             ++++++             ",
"                                "
};
