/* XPM */
static char *exit1702295175[] = {
/* columns rows colors chars-per-pixel */
"100 100 8 1 ",
"  c None",
". c #001C60",
"X c #002E9D",
"o c #003FD6",
"O c #004BFF",
"+ c #2F6CFF",
"@ c #4078FF",
"# c #5988F7",
/* pixels */
"                                                                                                    ",
"                                                                                                    ",
"                                                                                                    ",
"                                                                                                    ",
"                                                                                                    ",
"                                                                                                    ",
"                                                                                                    ",
"                                             ##########                                             ",
"                                         ##################                                         ",
"                                       ######################                                       ",
"                                     ########@@@@@@@@@@########                                     ",
"                                    ######@@@@@@@@@@@@@@@@######                                    ",
"                                  ######@@@@@@++++++++@@@@@@######                                  ",
"                                 #####@@@@@++++++++++++++@@@@@#####                                 ",
"                                #####@@@@++++++++++++++++++@@@@#####                                ",
"                               #####@@@++++++++++++++++++++++@@@#####                               ",
"                              #####@@@++++++++++++++++++++++++@@@#####                              ",
"                             #####@@@++++++++++++++++++++++++++@@@#####                             ",
"                            #####@@@++++++++++OOOOOOOO++++++++++@@@#####                            ",
"                            ####@@@++++++++OOOOOOOOOOOOOO++++++++@@@####                            ",
"                           ####@@@++++++++OOOOOOOOOOOOOOOO++++++++@@@####                           ",
"                          ####@@@+++++++OOOOOOOOOOOOOOOOOOOO+++++++@@@####                          ",
"                          ###@@@+++++++OOOOOOOooooooooOOOOOOO+++++++@@@###                          ",
"                         ####@@@++++++OOOOOOooooooooooooOOOOOO++++++@@@####                         ",
"                         ###@@@++++++OOOOOooooooooooooooooOOOOO++++++@@@###                         ",
"                        ####@@++++++OOOOOooooooooooooooooooOOOOO++++++@@####                        ",
"                       ####@@@+++++OOOOOooooooooooooooooooooOOOOO+++++@@@####                       ",
"                       ####@@++++++OOOOooooooooooooooooooooooOOOO++++++@@####                       ",
"                       ###@@@+++++OOOOooooooooooooooooooooooooOOOO+++++@@@###                       ",
"                      ####@@++++++OOOooooooooooooooooooooooooooOOO++++++@@####                      ",
"                      ###@@@+++++OOOooooooooooooooooooooooooooooOOO+++++@@@###                      ",
"                     ####@@@++++OOOOoooooooooooXXXXXXoooooooooooOOOO++++@@@####                     ",
"                     ###@@@+++++OOOooooooooooXXXXXXXXXXooooooooooOOO+++++@@@###                     ",
"                     ###@@@+++++OOoooooooooXXXXXXXXXXXXXXoooooooooOO+++++@@@###                     ",
"                    ####@@@++++OOOooooooooXXXXXXXXXXXXXXXXooooooooOOO++++@@@####                    ",
"                    ###@@@+++++OOOoooooooXXXXXXXXXXXXXXXXXXoooooooOOO+++++@@@###                    ",
"                    ###@@@++++OOOoooooooXXXXXXXXXXXXXXXXXXXXoooooooOOO++++@@@###                    ",
"                    ###@@@++++OOOoooooooXXXXXXXXXXXXXXXXXXXXoooooooOOO++++@@@###                    ",
"                   ####@@+++++OOoooooooXXXXXXXXXXXXXXXXXXXXXXoooooooOO+++++@@####                   ",
"                   ###@@@+++++OOooooooXXXXXXXXX.....XXXXXXXXXXooooooOO+++++@@@###                   ",
"                   ###@@@++++OOOooooooXXXXXXXX.......XXXXXXXXXooooooOOO++++@@@###                   ",
"                   ###@@@++++OOooooooXXXXXXXX.........XXXXXXXXXooooooOO++++@@@###                   ",
"                   ###@@@++++OOooooooXXXXXXX...........XXXXXXXXooooooOO++++@@@###                   ",
"                   ###@@@++++OOooooooXXXXXX.............XXXXXXXooooooOO++++@@@###                   ",
"                  ####@@+++++OOoooooXXXXXXX.............XXXXXXXXoooooOO+++++@@####                  ",
"                  ###@@@++++OOOoooooXXXXXX...............XXXXXXXoooooOOO++++@@@###                  ",
"                  ###@@@++++OOooooooXXXXXX...............XXXXXXXooooooOO++++@@@###                  ",
"                  ###@@@++++OOooooooXXXXX.................XXXXXXooooooOO++++@@@###                  ",
"                  ###@@@++++OOoooooXXXXXX.................XXXXXXXoooooOO++++@@@###                  ",
"                  ###@@@++++OOoooooXXXXXX.................XXXXXXXoooooOO++++@@@###                  ",
"                  ###@@@++++OOoooooXXXXXX.................XXXXXXXoooooOO++++@@@###                  ",
"                  ###@@@++++OOoooooXXXXX...................XXXXXXoooooOO++++@@@###                  ",
"                  ###@@@++++OOoooooXXXXX...................XXXXXXoooooOO++++@@@###                  ",
"                  ###@@@++++OOoooooXXXXX...................XXXXXXoooooOO++++@@@###                  ",
"                  ###@@@++++OOoooooXXXXX...................XXXXXXoooooOO++++@@@###                  ",
"                  ###@@@++++OOoooooXXXXX...................XXXXXXoooooOO++++@@@###                  ",
"                  ###@@@++++OOoooooXXXXX...................XXXXXXoooooOO++++@@@###                  ",
"                  ###@@@++++OOoooooXXXXX...................XXXXXXoooooOO++++@@@###                  ",
"                  ###@@@++++OOoooooXXXXX...................XXXXXXoooooOO++++@@@###                  ",
"                  ###@@@++++OOoooooXXXXX...................XXXXXXoooooOO++++@@@###                  ",
"                   ###@@@+++OOoooooXXXXX...................XXXXXXoooooOO+++@@@###                   ",
"                   ###@@@++++OOooooXXXXX...................XXXXXXooooOO++++@@@###                   ",
"                   ###@@@++++OOoooooXXXXX.................XXXXXXoooooOO++++@@@###                   ",
"                   ###@@@++++OOoooooXXXXX.................XXXXXXoooooOO++++@@@###                   ",
"                   ###@@@++++OOoooooXXXXX.................XXXXXXoooooOO++++@@@###                   ",
"                   ###@@@++++OOoooooXXXXX.................XXXXXXoooooOO++++@@@###                   ",
"                    ###@@@++++OOoooooXXXXX...............XXXXXXoooooOO++++@@@###                    ",
"                    ###@@@++++OOoooooXXXXX...............XXXXXXoooooOO++++@@@###                    ",
"                    ###@@@++++OOoooooXXXXXX.............XXXXXXXoooooOO++++@@@###                    ",
"                    ###@@@@+++OOOoooooXXXXX.............XXXXXXoooooOOO+++@@@@###                    ",
"                     ###@@@++++OOoooooXXXXXX...........XXXXXXXoooooOO++++@@@###                     ",
"                     ###@@@++++OOOoooooXXXXXX.........XXXXXXXoooooOOO++++@@@###                     ",
"                     ###@@@@++++OOooooooXXXXXX.......XXXXXXXooooooOO++++@@@@###                     ",
"                      ###@@@++++OOooooooXXXXXXX.....XXXXXXXXooooooOO++++@@@###                      ",
"                      ###@@@++++OOOooooooXXXXXXXXXXXXXXXXXXooooooOOO++++@@@###                      ",
"                       ###@@@++++OOOooooooXXXXXXXXXXXXXXXXooooooOOO++++@@@###                       ",
"                       ###@@@+++++OOoooooooXXXXXXXXXXXXXXoooooooOO+++++@@@###                       ",
"                       ####@@@++++OOOooooooooXXXXXXXXXXooooooooOOO++++@@@####                       ",
"                        ###@@@+++++OOOoooooooooXXXXXXoooooooooOOO+++++@@@###                        ",
"                         ###@@@++++OOOOooooooooooooooooooooooOOOO++++@@@###                         ",
"                         ###@@@@++++OOOOooooooooooooooooooooOOOO++++@@@@###                         ",
"                          ###@@@+++++OOOOooooooooooooooooooOOOO+++++@@@###                          ",
"                          ###@@@@+++++OOOOooooooooooooooooOOOO+++++@@@@###                          ",
"                           ###@@@@+++++OOOOOooooooooooooOOOOO+++++@@@@###                           ",
"                            ###@@@@+++++OOOOOOooooooooOOOOOO+++++@@@@###                            ",
"                            ####@@@@++++++OOOOOOOOOOOOOOOO++++++@@@@####                            ",
"                             ####@@@@++++++OOOOOOOOOOOOOO++++++@@@@####                             ",
"                              ####@@@@++++++++OOOOOOOO++++++++@@@@####                              ",
"                               ####@@@@++++++++++++++++++++++@@@@####                               ",
"                                ####@@@@@++++++++++++++++++@@@@@####                                ",
"                                 ####@@@@@@++++++++++++++@@@@@@####                                 ",
"                                  ####@@@@@@@@++++++++@@@@@@@@####                                  ",
"                                    ####@@@@@@@@@@@@@@@@@@@@####                                    ",
"                                     #####@@@@@@@@@@@@@@@@#####                                     ",
"                                       ######@@@@@@@@@@######                                       ",
"                                         ##################                                         ",
"                                             ##########                                             ",
"                                                                                                    ",
"                                                                                                    ",
"                                                                                                    "
};
