/* XPM */
static char *_15ed4f8f45a48d1985f415b759ff108YxFXexXfoyesryyx[] = {
/* columns rows colors chars-per-pixel */
"32 32 2 1 ",
"  c #2E2C2C",
". c #FCD529",
/* pixels */
"                                ",
"                                ",
"                                ",
"                  .             ",
"                 ...            ",
"                  .             ",
"                         .      ",
"                        ...     ",
"          .              .      ",
"         ...                    ",
"          .                     ",
"    .                           ",
"   ...                          ",
"    .                           ",
"                       .        ",
"                      ...       ",
"                       .        ",
"                                ",
"                .               ",
"               ...              ",
"                .               ",
"                                ",
"       .                        ",
"      ...                       ",
"       .                .       ",
"                       ...      ",
"                        .       ",
"            .                   ",
"           ...                  ",
"            .                   ",
"                                ",
"                                "
};
