/* XPM */
static char *ba46ddbcbeb74ce8868cc9e9cc146120q4GBzsXON8NUFs4b[] = {
/* columns rows colors chars-per-pixel */
"32 32 2 1 ",
"  c #2E2C2C",
". c #FCD529",
/* pixels */
"                                ",
"                                ",
"                   .            ",
"                  ...           ",
"                   .            ",
"       .                        ",
"      ...                       ",
"       .                .       ",
"                       ...      ",
"                        .       ",
"                                ",
"               .                ",
"              ...               ",
"               .                ",
"                                ",
"        .                       ",
"       ...                      ",
"        .                       ",
"                           .    ",
"                          ...   ",
"                           .    ",
"                     .          ",
"                    ...         ",
"      .              .          ",
"     ...                        ",
"      .                         ",
"             .                  ",
"            ...                 ",
"             .                  ",
"                                ",
"                                ",
"                                "
};
