/* XPM */
static char *c207ac14668f4c03f0e100bf544e5b84fNkbIj68fO6hsQFU[] = {
/* columns rows colors chars-per-pixel */
"32 32 2 1 ",
"  c #2E2C2C",
". c #FCD529",
/* pixels */
"                                ",
"                                ",
"                                ",
"                                ",
"                                ",
"       .                        ",
"      ...                .      ",
"       .       .        ...     ",
"              ...        .      ",
"               .                ",
"                                ",
"                                ",
"    .                           ",
"   ...                          ",
"    .              .            ",
"                  ...           ",
"                   .            ",
"                                ",
"                            .   ",
"                           ...  ",
"         .                  .   ",
"        ...                     ",
"         .                      ",
"                       .        ",
"                      ...       ",
"                       .        ",
"            .                   ",
"           ...                  ",
"            .                   ",
"                                ",
"                                ",
"                                "
};
