/* XPM */
static char *player_left1702296465[] = {
/* columns rows colors chars-per-pixel */
"100 100 80 1 ",
"  c None",
". c #FE5B02",
"X c #FB5F08",
"o c #F85F10",
"O c #FE6102",
"+ c #FF6C00",
"@ c #FF7200",
"# c #FF7A00",
"$ c #EE6626",
"% c #ED6729",
"& c #E86C33",
"* c #E27341",
"= c #FF8B00",
"- c #FF9300",
"; c #FF9B00",
": c #FFAB00",
"> c #FFB400",
", c #FFB800",
"< c #CD8B6F",
"1 c #D48360",
"2 c #D08869",
"3 c #C7937D",
"4 c #8E08CD",
"5 c #9009CF",
"6 c #950BD4",
"7 c #9A0DDA",
"8 c #A10FE1",
"9 c #A413E3",
"0 c #AD15ED",
"q c #B216F2",
"w c #B61CF4",
"e c #B81EF6",
"r c #B917FA",
"t c #BD1DFD",
"y c #BD24F9",
"u c #BE29F8",
"i c #BF3DF1",
"p c #C31DFF",
"a c #C223FF",
"s c #C12AFC",
"d c #C034F6",
"f c #C03AF4",
"g c #C031F8",
"h c #BB5EDE",
"j c #B77CCD",
"k c #B87FCE",
"l c #B96CD6",
"z c #BA64DB",
"x c #B96AD8",
"c c #B777D0",
"v c #B872D3",
"b c #B979D1",
"n c #BD4FE7",
"m c #BE45EC",
"M c #BD4AEA",
"N c #BC52E5",
"B c #BB59E1",
"V c #BE50E8",
"C c #BF40F0",
"Z c #BCA296",
"A c #B396BF",
"S c #B29EBA",
"D c #B7A7A0",
"F c #B7A8A0",
"G c #B4ACA9",
"H c #AFB5AD",
"J c #AFB9AB",
"K c #B0B2AF",
"L c #B1A5B6",
"P c #B0ACB2",
"I c #B2A1B8",
"U c #AEB3B4",
"Y c #ACB4BA",
"T c #B0B0B0",
"R c #C69380",
"E c #B587C7",
"W c #B58CC4",
"Q c #B683CA",
"! c #B881CD",
"~ c #B493C1",
/* pixels */
"                                                                                                    ",
"                                                                                                    ",
"                                                                                                    ",
"                                                                                                    ",
"                                                                                                    ",
"                                                                                                    ",
"                                                                                                    ",
"                                                                                                    ",
"                                                                                                    ",
"                                                                                                    ",
"                                                                                                    ",
"                                                                                                    ",
"                                                                                                    ",
"                                                                                                    ",
"                                                                                                    ",
"                                                                                                    ",
"                                                                                                    ",
"                                                                                                    ",
"                                                                                                    ",
"                                                                                                    ",
"                                                                                                    ",
"                                                                                                    ",
"                                                                                                    ",
"                                                                                                    ",
"                                                                                                    ",
"                                      aaapdhWPKKTTTTTTTTTTTTTUUUZ1$O#;>                             ",
"                                      saaadhWPKKTTTTTTTTTKTTUPUUZ1%O#;>,                            ",
"                                      aapadhWPJKTTTTTKKTKPTTPUUTZ1$O#;:                             ",
"                                                 TTTTKHHKTTT                                        ",
"                                                  TTPPPPTTTT                                        ",
"                                                  KTLS~~IPTK                                        ",
"                                                THHKSjxvWLKKT                                       ",
"                                               TTKKLWhmNjSKHKG                                      ",
"                                              KKTPI~lMgCvSKKKK                                      ",
"                                             KHHTSQzMusmvLKJT      TYUF<&X@-:                       ",
"                                            TTKKLWzCsasmcSKK      TTUUF<&O@->,                      ",
"                                           KKPPIWvMsppaMcSKJ     TTTUUF<&O@-:,                      ",
"                                          KHHPSQxnfappamcIKJT   JTTTUUF<&o@-:,                      ",
"                                         KPHHLEzCssappamcSKHTTTTTTTTUUF<&X@-:,                      ",
"                                        KKPPL~xmuaaaasiBkLKHTPLISLPPUUF<&X@-:,                      ",
"                                       JJJPSExniapaadnzjAPHJHL~jcELTUUF $.+-                        ",
"                                TTKKKKKKJHLEhmdaappsmxWSPTHHKScNnvATH                               ",
"                               KKPLLSSSSLL~lmaaaaapsMv~ILSSLSWzMMlATJ                               ",
"                              JJKL~!bcbbbblVdapaaaasfBvjjccccvzzxESHJJ                              ",
"                      TTHTHHHHHJKSjBMmmMMmCisaaaaaaagimMMmmmmNxQAIPHJUHHUUYYG3*o+=:>                ",
"                      TPTLLSILLLIWzfaayyyuyyaaaaaaaaaassssaasizWILIILLLLPGUYG3*o+=:>                ",
"                     HKPIWjjjjjjczMstrq0000wtaaaaaaaapapppppaunxjkjjccjWIUUUG3*o+=:,                ",
"             aapadhWPJHPWxNmMmMMMidat0877770euaaaaasaaapaaapaaimMMmMmmVv~PHUG3*o+=:>                ",
"             aaaadhWPHHLWhisuddddgsay0764569waaaaaaaaaaaaaaaaasiddddsdizWLUUG3*oO=:>                ",
"             aapadhWPHHPWvBnnNVNnmfae0877780yaaaasaaaaaaaapaasimnnnnMnBvAPHUG3*o+=:,                ",
"                     HKPI~QjQQ!EjxMgtrqq00qeyyaaaaaaaaapppppaunlQEQQjkEAITUUGR*o+=:>                ",
"                      TTPPLLLLLLLWzisausuuuyaaaaaasaaasssssasizWLLLLLLLPTHUYGR*o+=:,                ",
"                       TUKHHJHJJKSkhVVVVNVmfsapaaaaadiMNnnnnNBxjWIPKJKJUUUYYGR*o+=:,                ",
"                              JJKLAEjbbj!!vBfapaaaaafzcQ!jjjjczhzQIKJJ                              ",
"                               TUPPLLLLLLL~vmsaaaaasMv~ILILLLWxmmxAUJ                               ",
"                                TGKHKJKKJJLEhmisaapsmzWSLUHJKSjBBvAPJ                               ",
"                                       JJHPSWlNfapaadMhjAPJJHL~!!WLPUUD2%.@-:                       ",
"                                        KKTPLAvMspaaasdNjLKKKGLILLPUUUF<&X@->,                      ",
"                                         TTHHLWzmdsappaMvSKJKTHHTTTTUUF<&X@-:,                      ",
"                                          THHUSElNdappamcSKKT   JTTTUUF<&X@-:,                      ",
"                                           KTTPLAvMsppamjSKJ     TTTUUF<&X@-:,                      ",
"                                            TTHHPWzmgasMcIKJ      TTUUF<&X@-:,                      ",
"                                             KUJPSElngamvSKHK       UUF<&X@-                        ",
"                                               TGPLAcnumvSTHKT                                      ",
"                                               TTKKLWzmNjIHHTT                                      ",
"                                                TJJKI!lc~LPKT                                       ",
"                                                  KTLSASLPTK                                        ",
"                                                  TTKPPPPTTT                                        ",
"                                                 TTKKKHKKTPT                                        ",
"                                      aaaadhWPKKTKPTTKTKKTKTTTYTZ1$O#;>                             ",
"                                      aappdhWPKKTTTTTTTTTTTKTUUUZ1$O#;>,                            ",
"                                      aaaadhWPJKTTTTTTTTTTTTPTUUZ1$.#;>                             ",
"                                                                                                    ",
"                                                                                                    ",
"                                                                                                    ",
"                                                                                                    ",
"                                                                                                    ",
"                                                                                                    ",
"                                                                                                    ",
"                                                                                                    ",
"                                                                                                    ",
"                                                                                                    ",
"                                                                                                    ",
"                                                                                                    ",
"                                                                                                    ",
"                                                                                                    ",
"                                                                                                    ",
"                                                                                                    ",
"                                                                                                    ",
"                                                                                                    ",
"                                                                                                    ",
"                                                                                                    ",
"                                                                                                    ",
"                                                                                                    ",
"                                                                                                    ",
"                                                                                                    ",
"                                                                                                    ",
"                                                                                                    ",
"                                                                                                    ",
"                                                                                                    "
};
