/* XPM */
static char *_911170fd7594809f6252e33b79f967c0B7DDT825fhAHO9J[] = {
/* columns rows colors chars-per-pixel */
"32 32 3 1 ",
"  c None",
". c #694620",
"X c #88561D",
/* pixels */
"                    .....       ",
"                  ...XXX...     ",
"                ...XXXXXX..     ",
"    ...        ..XXXXXXXXX..    ",
"   ..X...      ..XXXXXXXXX..    ",
"   .XXX....     .XXXX......     ",
"   .XXXXX...    ......          ",
"   ..XXXXXX.                    ",
"    .XXXXXX..           ..      ",
"    ..XXXXX..         ......    ",
"     .XXXX..          .XXXX..   ",
"     ..X....    .    ..XXXXX..  ",
"      ...     ....    ...X...   ",
"              .XX..     ...     ",
"             ..XXX.             ",
"             .XXXX.             ",
"             .XXX..   ...       ",
"   ...      ..XXX.    .X...     ",
"   .X..     .XXXX.    .XXX...   ",
"   .XX.     .XXXX..   ..XXXX.   ",
"  ..XX.    ..XXXXX.    .XXXX..  ",
"  .XXX..   .XXXXXX..   ..XXXXX. ",
" ..XXXX.   .XXXXXXX.    ..XXXX. ",
" .XXXX..   ..XXXXXX.    ..XXXX. ",
" .XXXX.    ...XXXX..    ..XXX.. ",
" ..XXX.      ......   ....XXX.  ",
"  .XXX. ...           ...XXXX.  ",
"  ..XX..XX.          ..XXXXX..  ",
"   .XXXXX.          ..XXXXX..   ",
"   .XXXXX.          ...XXX...   ",
"  .X....XX..          .....     ",
"  ..   .....                    "
};
